# xmcd
# 
# Track frame offsets:
#     150
#     5145
#     33347
#     59120
#     63552
#     86705
#     104387
#     120840
#     146410
#     187910
# 
# Disc length: 2608
# 
# Revision: 8
# Processed by: cddbd v1.5.2PL0 Copyright (c) Steve Scherf et al.
# Submitted via: BonkEnc v1.0.8
# 
DISCID=870a2e0a
DTITLE=Lost Horizon - Awakening the World
DYEAR=2001
DGENRE=Heavy Metal
TTITLE0=The Quickening
TTITLE1=Heart Of Storm
TTITLE2=Sworn In The Metal Wind
TTITLE3=The Song Of Air
TTITLE4=World Through My Fateless Eyes
TTITLE5=Perfect Warrior
TTITLE6=Denial Of Fate
TTITLE7=Welcome Back
TTITLE8=The Kingdom Of My Will
TTITLE9=The Redintegration
EXTD=http://www.oncelosthorizon.com YEAR: 2001
EXTT0=
EXTT1=
EXTT2=
EXTT3=
EXTT4=
EXTT5=
EXTT6=
EXTT7=
EXTT8=
EXTT9=
PLAYORDER=
